<svg width="4630" height="751" viewBox="0 0 4630 751" fill="none" xmlns="http://www.w3.org/2000/svg">
<path d="M742 3.11572C746.418 3.11572 750 6.69744 750 11.1157V294.069C750 298.488 746.418 302.069 742 302.069H698C693.582 302.069 690 298.488 690 294.069V68.5148C690 64.0965 686.418 60.5148 682 60.5148L458 60.5148C453.582 60.5148 450 56.9331 450 52.5148V11.1157C450 6.69745 453.582 3.11572 458 3.11572L742 3.11572Z" fill="#5EC98F"/>
<path d="M750 742.5C750 746.918 746.418 750.5 742 750.5H458C453.582 750.5 450 746.918 450 742.5V698.709C450 694.291 453.582 690.709 458 690.709H684.4C688.818 690.709 692.4 687.128 692.4 682.709V459.546C692.4 455.128 695.982 451.546 700.4 451.546H742C746.418 451.546 750 455.128 750 459.546V742.5Z" fill="#DC4763"/>
<path d="M0 8.5C0 4.08172 3.58172 0.5 8 0.5H292C296.418 0.5 300 4.08172 300 8.5V52.2907C300 56.709 296.418 60.2907 292 60.2907H65.6C61.1817 60.2907 57.6 63.8725 57.6 68.2907V291.454C57.6 295.872 54.0183 299.454 49.6 299.454H8C3.58173 299.454 0 295.872 0 291.454V8.5Z" fill="#5376DB"/>
<path d="M7.99999 750.126C3.58171 750.126 0 746.544 0 742.126L0 459.173C0 454.754 3.58172 451.173 8 451.173H52C56.4183 451.173 60 454.754 60 459.173L60 684.727C60 689.145 63.5817 692.727 68 692.727H292C296.418 692.727 300 696.309 300 700.727V742.126C300 746.544 296.418 750.126 292 750.126H7.99999Z" fill="#EEAF4E"/>
<rect x="222" y="223.968" width="300" height="298.954" rx="8" fill="#1A2538"/>
<path d="M1138.32 184.28C1085.04 184.28 1038.96 211.64 1020.24 253.4V224.6C1020.24 203.72 1002.96 186.44 982.08 186.44C961.2 186.44 943.2 203.72 943.2 224.6V665.96C943.2 686.84 960.48 704.12 981.36 704.12C1002.24 704.12 1019.52 686.84 1019.52 665.96V536.36C1020.24 534.2 1020.24 531.32 1020.24 529.16V490.28C1025.28 522.68 1069.92 568.04 1138.32 568.04C1218.24 568.04 1314 506.12 1314 375.8C1314 247.64 1217.52 184.28 1138.32 184.28ZM1126.08 502.52C1077.12 502.52 1016.64 465.08 1016.64 375.8C1016.64 285.8 1077.12 249.8 1126.08 249.8C1178.64 249.8 1237.68 290.84 1237.68 375.8C1237.68 461.48 1178.64 502.52 1126.08 502.52ZM1425.05 118.04C1445.93 118.04 1463.93 100.76 1463.93 79.88C1463.93 59 1445.93 41.72 1425.05 41.72C1404.17 41.72 1386.17 59 1386.17 79.88C1386.17 100.76 1404.17 118.04 1425.05 118.04ZM1425.05 186.44C1404.17 186.44 1386.89 203.72 1386.89 225.32V528.44C1386.89 550.04 1404.17 567.32 1425.05 567.32C1445.93 567.32 1463.21 550.04 1463.21 528.44V225.32C1463.21 203.72 1445.93 186.44 1425.05 186.44ZM1843.76 512.6L1733.6 375.08L1840.88 240.44C1845.92 234.68 1848.8 228.2 1848.8 220.28C1848.8 201.56 1832.24 186.44 1814.24 186.44C1803.44 186.44 1794.08 192.2 1787.6 200.12L1691.84 323.96L1596.08 200.12C1589.6 192.2 1579.52 186.44 1568.72 186.44C1550.72 186.44 1534.16 201.56 1534.16 220.28C1534.16 228.2 1537.04 234.68 1542.08 240.44L1649.36 375.08L1539.2 512.6C1534.88 518.36 1532 524.84 1532 532.76C1532 551.48 1548.56 566.6 1566.56 566.6C1577.36 566.6 1586.72 560.84 1593.2 552.92L1691.84 426.2L1789.76 552.92C1796.24 560.84 1805.6 566.6 1816.4 566.6C1834.4 566.6 1850.96 551.48 1850.96 532.76C1850.96 524.84 1848.08 518.36 1843.76 512.6ZM2069.42 184.28C1987.34 184.28 1882.94 246.92 1882.94 376.52C1882.94 506.84 1983.02 566.6 2076.62 566.6C2121.98 566.6 2161.58 553.64 2188.94 531.32C2204.78 518.36 2208.38 508.28 2208.38 498.92C2208.38 483.08 2198.3 471.56 2181.74 471.56C2171.66 471.56 2163.74 476.6 2151.5 483.08C2129.18 496.76 2109.02 503.96 2079.5 503.96C2021.9 503.96 1969.34 470.84 1961.42 403.88L2202.62 404.6C2233.58 404.6 2250.14 393.08 2250.14 363.56C2250.14 249.08 2151.5 184.28 2069.42 184.28ZM2069.42 250.52C2117.66 250.52 2169.5 280.76 2175.98 349.16H1961.42C1967.9 280.76 2021.9 250.52 2069.42 250.52ZM2398.35 528.44V87.08C2398.35 66.2 2381.07 48.92 2360.19 48.92C2339.31 48.92 2322.03 66.2 2322.03 87.08V528.44C2322.03 549.32 2339.31 566.6 2360.19 566.6C2381.07 566.6 2398.35 549.32 2398.35 528.44ZM2679.57 184.28C2626.29 184.28 2580.21 211.64 2561.49 253.4V224.6C2561.49 222.44 2561.49 219.56 2560.77 217.4V87.08C2560.77 66.2 2543.49 48.92 2523.33 48.92C2502.45 48.92 2484.45 66.2 2484.45 87.08V529.16C2484.45 550.04 2502.45 567.32 2523.33 567.32C2544.21 567.32 2561.49 550.04 2561.49 529.16V490.28C2566.53 522.68 2611.17 568.04 2679.57 568.04C2759.49 568.04 2855.25 506.12 2855.25 375.8C2855.25 247.64 2758.77 184.28 2679.57 184.28ZM2667.33 502.52C2618.37 502.52 2557.89 465.08 2557.89 375.8C2557.89 285.8 2618.37 249.8 2667.33 249.8C2719.89 249.8 2778.93 290.84 2778.93 375.8C2778.93 461.48 2719.89 502.52 2667.33 502.52ZM3123.26 185C3052.7 185 3007.34 247.64 3003.74 272.84V225.32C3003.74 203.72 2986.46 186.44 2965.58 186.44C2944.7 186.44 2927.42 203.72 2927.42 225.32V528.44C2927.42 549.32 2944.7 566.6 2965.58 566.6C2986.46 566.6 3003.74 549.32 3003.74 528.44V343.4C3008.78 305.24 3049.82 256.28 3113.18 256.28C3145.58 256.28 3162.14 241.88 3162.14 220.28C3162.14 200.84 3148.46 185 3123.26 185ZM3366.43 184.28C3287.23 184.28 3190.75 247.64 3190.75 375.8C3190.75 506.12 3286.51 568.04 3366.43 568.04C3434.83 568.04 3479.47 522.68 3484.51 490.28V529.16C3484.51 550.04 3501.79 567.32 3522.67 567.32C3543.55 567.32 3561.55 550.04 3561.55 529.16V224.6C3561.55 203.72 3543.55 186.44 3522.67 186.44C3501.79 186.44 3484.51 203.72 3484.51 224.6V253.4C3465.79 211.64 3419.71 184.28 3366.43 184.28ZM3378.67 502.52C3326.11 502.52 3267.07 461.48 3267.07 375.8C3267.07 290.84 3326.11 249.8 3378.67 249.8C3427.63 249.8 3488.11 285.8 3488.11 375.8C3488.11 465.08 3427.63 502.52 3378.67 502.52ZM3853.32 185C3771.24 185 3728.04 247.64 3724.44 272.84V225.32C3724.44 203.72 3707.16 186.44 3686.28 186.44C3665.4 186.44 3648.12 203.72 3648.12 225.32V528.44C3648.12 549.32 3665.4 566.6 3686.28 566.6C3707.16 566.6 3724.44 549.32 3724.44 528.44V343.4C3728.76 312.44 3759 250.52 3828.12 250.52C3874.92 250.52 3915.96 279.32 3915.96 351.32V528.44C3915.96 549.32 3933.24 566.6 3954.12 566.6C3975 566.6 3991.56 549.32 3991.56 528.44V351.32C3991.56 228.92 3923.16 185 3853.32 185ZM4395.25 48.92C4375.09 48.92 4357.81 66.2 4357.81 87.08V217.4C4357.09 219.56 4357.09 222.44 4357.09 224.6V253.4C4338.37 211.64 4292.29 184.28 4239.01 184.28C4159.81 184.28 4063.33 247.64 4063.33 375.8C4063.33 506.12 4159.09 568.04 4239.01 568.04C4307.41 568.04 4352.05 522.68 4357.09 490.28V529.16C4357.09 550.04 4374.37 567.32 4395.25 567.32C4416.13 567.32 4434.13 550.04 4434.13 529.16V87.08C4434.13 66.2 4416.13 48.92 4395.25 48.92ZM4251.25 502.52C4198.69 502.52 4139.65 461.48 4139.65 375.8C4139.65 290.84 4198.69 249.8 4251.25 249.8C4300.21 249.8 4360.69 285.8 4360.69 375.8C4360.69 465.08 4300.21 502.52 4251.25 502.52ZM4551.66 565.16C4575.42 565.16 4595.58 545 4595.58 519.8C4595.58 495.32 4575.42 475.16 4551.66 475.16C4526.46 475.16 4506.3 495.32 4506.3 519.8C4506.3 545 4526.46 565.16 4551.66 565.16Z" fill="#1A2538"/>
</svg>
